<svg width="150" height="150" viewBox="0 0 150 150" fill="none" xmlns="http://www.w3.org/2000/svg">
  <circle cx="75" cy="75" r="75" fill="#FFD700"/>
  <path d="M50 90C50 80 60 70 75 70C90 70 100 80 100 90C100 100 90 110 75 110C60 110 50 100 50 90Z" fill="#8B4513"/>
  <path d="M60 80C60 75 65 70 75 70C85 70 90 75 90 80C90 85 85 90 75 90C65 90 60 85 60 80Z" fill="#FFFFFF"/>
  <circle cx="70" cy="80" r="5" fill="#000000"/>
  <circle cx="80" cy="80" r="5" fill="#000000"/>
  <path d="M65 95C65 92 70 90 75 90C80 90 85 92 85 95" stroke="#000000" stroke-width="2" stroke-linecap="round"/>
</svg> 