<svg width="146" height="146" viewBox="0 0 146 146" fill="none" xmlns="http://www.w3.org/2000/svg">
  <path d="M73 141.5C111.108 141.5 142 110.608 142 72.5C142 34.3924 111.108 3.5 73 3.5C34.8924 3.5 4 34.3924 4 72.5C4 110.608 34.8924 141.5 73 141.5Z" fill="url(#paint0_linear)" fill-opacity="0.1" stroke="url(#paint1_linear)" stroke-width="8"/>
  <path d="M41 40H105C108.314 40 111 42.6863 111 46V100C111 103.314 108.314 106 105 106H41C37.6863 106 35 103.314 35 100V46C35 42.6863 37.6863 40 41 40Z" stroke="url(#paint2_linear)" stroke-width="6"/>
  <path d="M66 53H96" stroke="url(#paint3_linear)" stroke-width="6" stroke-linecap="round"/>
  <path d="M66 65H86" stroke="url(#paint4_linear)" stroke-width="6" stroke-linecap="round"/>
  <path d="M66 77H93" stroke="url(#paint5_linear)" stroke-width="6" stroke-linecap="round"/>
  <path d="M66 89H82" stroke="url(#paint6_linear)" stroke-width="6" stroke-linecap="round"/>
  <circle cx="52" cy="59" r="8" fill="url(#paint7_linear)"/>
  <defs>
    <linearGradient id="paint0_linear" x1="4" y1="3.5" x2="142" y2="141.5" gradientUnits="userSpaceOnUse">
      <stop stop-color="#4776E6"/>
      <stop offset="1" stop-color="#8E54E9"/>
    </linearGradient>
    <linearGradient id="paint1_linear" x1="4" y1="3.5" x2="142" y2="141.5" gradientUnits="userSpaceOnUse">
      <stop stop-color="#4776E6"/>
      <stop offset="1" stop-color="#8E54E9"/>
    </linearGradient>
    <linearGradient id="paint2_linear" x1="35" y1="40" x2="111" y2="106" gradientUnits="userSpaceOnUse">
      <stop stop-color="#4776E6"/>
      <stop offset="1" stop-color="#8E54E9"/>
    </linearGradient>
    <linearGradient id="paint3_linear" x1="66" y1="53" x2="96" y2="53" gradientUnits="userSpaceOnUse">
      <stop stop-color="#4776E6"/>
      <stop offset="1" stop-color="#8E54E9"/>
    </linearGradient>
    <linearGradient id="paint4_linear" x1="66" y1="65" x2="86" y2="65" gradientUnits="userSpaceOnUse">
      <stop stop-color="#4776E6"/>
      <stop offset="1" stop-color="#8E54E9"/>
    </linearGradient>
    <linearGradient id="paint5_linear" x1="66" y1="77" x2="93" y2="77" gradientUnits="userSpaceOnUse">
      <stop stop-color="#4776E6"/>
      <stop offset="1" stop-color="#8E54E9"/>
    </linearGradient>
    <linearGradient id="paint6_linear" x1="66" y1="89" x2="82" y2="89" gradientUnits="userSpaceOnUse">
      <stop stop-color="#4776E6"/>
      <stop offset="1" stop-color="#8E54E9"/>
    </linearGradient>
    <linearGradient id="paint7_linear" x1="44" y1="51" x2="60" y2="67" gradientUnits="userSpaceOnUse">
      <stop stop-color="#4776E6"/>
      <stop offset="1" stop-color="#8E54E9"/>
    </linearGradient>
  </defs>
</svg>
