<svg width="600" height="800" viewBox="0 0 600 800" fill="none" xmlns="http://www.w3.org/2000/svg">
  <!-- Background -->
  <rect width="600" height="800" rx="20" fill="white"/>
  <rect width="600" height="180" rx="20" fill="url(#paint0_linear)"/>
  
  <!-- Header -->
  <circle cx="100" cy="100" r="60" fill="white" fill-opacity="0.8"/>
  <rect x="180" y="60" width="200" height="16" rx="8" fill="white"/>
  <rect x="180" y="90" width="150" height="10" rx="5" fill="white" fill-opacity="0.7"/>
  <rect x="180" y="110" width="280" height="10" rx="5" fill="white" fill-opacity="0.7"/>
  <rect x="180" y="130" width="250" height="10" rx="5" fill="white" fill-opacity="0.7"/>
  
  <!-- Experience Section -->
  <rect x="40" y="210" width="150" height="16" rx="8" fill="url(#paint1_linear)"/>
  <line x1="40" y1="240" x2="560" y2="240" stroke="#F0F0F0" stroke-width="2"/>
  
  <!-- Experience 1 -->
  <rect x="40" y="260" width="150" height="14" rx="7" fill="#333333"/>
  <rect x="40" y="285" width="120" height="10" rx="5" fill="#666666"/>
  <rect x="500" y="285" width="60" height="10" rx="5" fill="#666666"/>
  <rect x="40" y="305" width="520" height="8" rx="4" fill="#EEEEEE"/>
  <rect x="40" y="320" width="490" height="8" rx="4" fill="#EEEEEE"/>
  <rect x="40" y="335" width="510" height="8" rx="4" fill="#EEEEEE"/>
  
  <!-- Experience 2 -->
  <rect x="40" y="370" width="150" height="14" rx="7" fill="#333333"/>
  <rect x="40" y="395" width="120" height="10" rx="5" fill="#666666"/>
  <rect x="500" y="395" width="60" height="10" rx="5" fill="#666666"/>
  <rect x="40" y="415" width="520" height="8" rx="4" fill="#EEEEEE"/>
  <rect x="40" y="430" width="490" height="8" rx="4" fill="#EEEEEE"/>
  <rect x="40" y="445" width="510" height="8" rx="4" fill="#EEEEEE"/>
  
  <!-- Education Section -->
  <rect x="40" y="485" width="150" height="16" rx="8" fill="url(#paint2_linear)"/>
  <line x1="40" y1="515" x2="560" y2="515" stroke="#F0F0F0" stroke-width="2"/>
  
  <!-- Education 1 -->
  <rect x="40" y="535" width="150" height="14" rx="7" fill="#333333"/>
  <rect x="40" y="560" width="120" height="10" rx="5" fill="#666666"/>
  <rect x="500" y="560" width="60" height="10" rx="5" fill="#666666"/>
  <rect x="40" y="580" width="490" height="8" rx="4" fill="#EEEEEE"/>
  
  <!-- Skills Section -->
  <rect x="40" y="620" width="150" height="16" rx="8" fill="url(#paint3_linear)"/>
  <line x1="40" y1="650" x2="560" y2="650" stroke="#F0F0F0" stroke-width="2"/>
  
  <!-- Skills pills -->
  <rect x="40" y="670" width="100" height="30" rx="15" fill="#F5F5F5"/>
  <rect x="150" y="670" width="80" height="30" rx="15" fill="#F5F5F5"/>
  <rect x="240" y="670" width="120" height="30" rx="15" fill="#F5F5F5"/>
  <rect x="370" y="670" width="90" height="30" rx="15" fill="#F5F5F5"/>
  <rect x="470" y="670" width="70" height="30" rx="15" fill="#F5F5F5"/>
  
  <rect x="40" y="710" width="110" height="30" rx="15" fill="#F5F5F5"/>
  <rect x="160" y="710" width="90" height="30" rx="15" fill="#F5F5F5"/>
  <rect x="260" y="710" width="80" height="30" rx="15" fill="#F5F5F5"/>
  <rect x="350" y="710" width="140" height="30" rx="15" fill="#F5F5F5"/>
  <rect x="40" y="750" width="90" height="30" rx="15" fill="#F5F5F5"/>
  <rect x="140" y="750" width="130" height="30" rx="15" fill="#F5F5F5"/>
  <rect x="280" y="750" width="100" height="30" rx="15" fill="#F5F5F5"/>
  
  <!-- Gradients -->
  <defs>
    <linearGradient id="paint0_linear" x1="0" y1="0" x2="600" y2="180" gradientUnits="userSpaceOnUse">
      <stop stop-color="#00F5A0"/>
      <stop offset="1" stop-color="#00D9F5"/>
    </linearGradient>
    <linearGradient id="paint1_linear" x1="40" y1="210" x2="190" y2="226" gradientUnits="userSpaceOnUse">
      <stop stop-color="#00F5A0"/>
      <stop offset="1" stop-color="#00D9F5"/>
    </linearGradient>
    <linearGradient id="paint2_linear" x1="40" y1="485" x2="190" y2="501" gradientUnits="userSpaceOnUse">
      <stop stop-color="#00F5A0"/>
      <stop offset="1" stop-color="#00D9F5"/>
    </linearGradient>
    <linearGradient id="paint3_linear" x1="40" y1="620" x2="190" y2="636" gradientUnits="userSpaceOnUse">
      <stop stop-color="#00F5A0"/>
      <stop offset="1" stop-color="#00D9F5"/>
    </linearGradient>
  </defs>
</svg> 